<svg xmlns="http://www.w3.org/2000/svg" width="41.568" height="41.568" viewBox="0 0 41.568 41.568">
  <g id="create-note-svgrepo-com" transform="translate(-2 -2)">
    <path id="secondary" d="M33.18,4.661a4.594,4.594,0,0,0-6.485.264L11.572,20.049,9,28.841l8.793-2.572L32.916,11.256a4.594,4.594,0,0,0,.264-6.595Z" transform="translate(7.189 0.537)" fill="#2ca9bc"/>
    <path id="primary" d="M33.18,4.661a4.594,4.594,0,0,0-6.485.264L11.572,20.049,9,28.841l8.793-2.572L32.916,11.256a4.594,4.594,0,0,0,.264-6.595Z" transform="translate(7.189 0.537)" fill="none" stroke="#000" stroke-linecap="round" stroke-linejoin="round" stroke-width="2"/>
    <path id="primary-2" data-name="primary" d="M22.784,3H5.2A2.2,2.2,0,0,0,3,5.2V40.37a2.2,2.2,0,0,0,2.2,2.2H40.37a2.2,2.2,0,0,0,2.2-2.2V22.784" transform="translate(0 0)" fill="none" stroke="#000" stroke-linecap="round" stroke-linejoin="round" stroke-width="2"/>
  </g>
</svg>
